M48
; DRILL file KiCad 10.0.5 date 2026-10-03T15:06:12
; FORMAT={-:-/ absolute / metric / decimal}
; #@! TF.CreationDate,2026-10-03T15:06:12+07:00
; #@! TF.GenerationSoftware,Kicad,Pcbnew,10.0.5
; #@! TF.FileFunction,Plated,1,2,PTH
FMAT,2
METRIC
; #@! TA.AperFunction,Plated,PTH,ViaDrill
T1C0.300
; #@! TA.AperFunction,Plated,PTH,ComponentDrill
T2C0.800
; #@! TA.AperFunction,Plated,PTH,ComponentDrill
T3C0.900
; #@! TA.AperFunction,Plated,PTH,ComponentDrill
T4C1.000
%
G90
G05
T1
X142.502Y-79.348
T2
X158.69Y-95.185
X158.69Y-99.235
X166.31Y-95.185
X166.31Y-99.235
X174.0Y-98.235
X176.5Y-98.235
T3
X125.0Y-49.88
X125.0Y-52.42
X125.0Y-54.96
X125.0Y-57.5
X125.0Y-60.04
X125.0Y-62.58
X125.0Y-65.12
X125.0Y-67.66
X147.86Y-49.88
X147.86Y-52.42
X147.86Y-54.96
X147.86Y-57.5
X147.86Y-60.04
X147.86Y-62.58
X147.86Y-65.12
X147.86Y-67.66
X155.73Y-85.735
X158.27Y-85.735
X167.46Y-85.735
X170.0Y-85.735
T4
X113.0Y-71.695
X113.0Y-74.235
X113.0Y-76.775
X113.0Y-79.315
X124.5Y-112.695
X124.5Y-115.235
X124.5Y-117.775
X137.5Y-109.295
X137.5Y-111.835
X137.5Y-114.375
X137.5Y-116.915
X137.5Y-119.455
X137.5Y-121.995
X157.0Y-47.695
X157.0Y-50.235
X157.0Y-52.775
X157.0Y-55.315
X161.56Y-64.035
X161.56Y-66.575
X161.56Y-69.115
X161.56Y-71.655
X161.56Y-74.195
X161.56Y-76.735
X173.5Y-63.735
X176.04Y-63.735
X178.58Y-63.735
M30
